<svg width="16" height="16" viewBox="0 0 16 16" fill="none" xmlns="http://www.w3.org/2000/svg">
<g clip-path="url(#clip0)">
<path d="M14.875 14.75V5.83362L9.875 3.31787V2.46875H8.625V1.21875H6.125V0H4.875V1.21875H2.375V2.46875H1.125V14.75H0V16H16V14.75H14.875ZM13.625 6.60388V14.75H9.875V4.71716L13.625 6.60388ZM2.375 3.71875H3.625V2.46875H7.375V3.71875H8.625V14.75H2.375V3.71875ZM3.625 4.96875H4.875V6.21875H3.625V4.96875ZM6.125 4.96875H7.375V6.21875H6.125V4.96875ZM3.625 7.46875H4.875V8.71875H3.625V7.46875ZM6.125 7.46875H7.375V8.71875H6.125V7.46875ZM3.625 9.96875H4.875V11.2188H3.625V9.96875ZM6.125 9.96875H7.375V11.2188H6.125V9.96875ZM3.625 12.4688H4.875V13.7188H3.625V12.4688ZM6.125 12.4688H7.375V13.7188H6.125V12.4688ZM12.375 8.71875H11.125V7.46875H12.375V8.71875ZM12.375 11.2188H11.125V9.96875H12.375V11.2188ZM11.125 13.7188V12.4688H12.375V13.7188H11.125Z" fill="#9E9EA4"/>
</g>
<defs>
<clipPath id="clip0">
<rect width="16" height="16" fill="white"/>
</clipPath>
</defs>
</svg>
